<svg fill="#FFFFFF" height="48" viewBox="0 0 48 48" width="48" xmlns="http://www.w3.org/2000/svg"><path clip-rule="evenodd" d="m5.30927 21.4817 18.99483-12.95857c1.9921-1.35609 4.6907.06987 4.6907 2.48067v13.9564h11.9364c.5517 0 1-.4483 1-1s-.4483-1-1-1h-7.828c-.5523 0-1-.4477-1-1s.4477-1 1-1h7.828c1.6563 0 3 1.3437 3 3s-1.3437 3-3 3h-11.9364v9.9576c0 2.4093-2.6991 3.8344-4.6916 2.478l-18.99393-12.9579c-1.74598-1.191-1.74598-3.7652 0-4.9562zm21.68553 3.4785h-5.0156c-.5523 0-1 .4477-1 1s.4477 1 1 1h5.0156v9.9576c0 .8023-.9006 1.2778-1.5653.8253l-18.99315-12.9574c-.58207-.397-.58207-1.2548 0-1.6519l18.99395-12.958c.664-.45193 1.5645.0239 1.5645.828z" fill="#FFFFFF" fill-rule="evenodd"/></svg>